<svg id="nex-v1" xmlns="http://www.w3.org/2000/svg" width="465.377" height="116.801" viewBox="0 0 465.377 116.801">
  <g id="Group_75082" data-name="Group 75082" transform="translate(65.511 101.775)">
    <path id="Path_195946" data-name="Path 195946" d="M283.63,422.409l5.58-14.529h2.072l5.946,14.529h-2.191l-1.695-4.4h-6.077l-1.6,4.4Zm4.194-5.968h4.925l-1.517-4.024q-.693-1.834-1.03-3.014a18.616,18.616,0,0,1-.783,2.774Z" transform="translate(-283.63 -407.633)"/>
    <path id="Path_195947" data-name="Path 195947" d="M360.146,416.561l1.922.487a6.464,6.464,0,0,1-2.176,3.611,5.99,5.99,0,0,1-3.841,1.245,6.9,6.9,0,0,1-3.821-.956,5.973,5.973,0,0,1-2.24-2.769,9.892,9.892,0,0,1-.768-3.9,8.567,8.567,0,0,1,.867-3.96,5.944,5.944,0,0,1,2.468-2.567,7.2,7.2,0,0,1,3.522-.877,5.975,5.975,0,0,1,3.668,1.109,5.776,5.776,0,0,1,2.072,3.122l-1.892.445a4.474,4.474,0,0,0-1.467-2.31,3.917,3.917,0,0,0-2.418-.724,4.685,4.685,0,0,0-2.8.8,4.254,4.254,0,0,0-1.581,2.156,8.684,8.684,0,0,0-.457,2.789,8.855,8.855,0,0,0,.541,3.236,4.029,4.029,0,0,0,1.68,2.068,4.707,4.707,0,0,0,2.468.684,4.137,4.137,0,0,0,2.734-.931A4.76,4.76,0,0,0,360.146,416.561Z" transform="translate(-333.018 -406.88)"/>
    <path id="Path_195948" data-name="Path 195948" d="M426.056,416.561l1.922.487a6.463,6.463,0,0,1-2.176,3.611,5.99,5.99,0,0,1-3.841,1.245,6.9,6.9,0,0,1-3.821-.956,5.974,5.974,0,0,1-2.24-2.769,9.893,9.893,0,0,1-.768-3.9,8.567,8.567,0,0,1,.867-3.96,5.943,5.943,0,0,1,2.468-2.567,7.2,7.2,0,0,1,3.522-.877,5.975,5.975,0,0,1,3.668,1.109,5.777,5.777,0,0,1,2.072,3.122l-1.892.445a4.474,4.474,0,0,0-1.467-2.31,3.917,3.917,0,0,0-2.418-.724,4.685,4.685,0,0,0-2.8.8,4.255,4.255,0,0,0-1.581,2.156,8.685,8.685,0,0,0-.457,2.789,8.854,8.854,0,0,0,.541,3.236,4.029,4.029,0,0,0,1.68,2.068,4.707,4.707,0,0,0,2.468.684,4.137,4.137,0,0,0,2.734-.931A4.747,4.747,0,0,0,426.056,416.561Z" transform="translate(-382.647 -406.88)"/>
    <path id="Path_195949" data-name="Path 195949" d="M483.47,422.409V407.88h10.505v1.714h-8.584v4.451h8.038v1.7h-8.038V420.7h8.92v1.714Z" transform="translate(-434.106 -407.633)"/>
    <path id="Path_195950" data-name="Path 195950" d="M544.37,422.409V407.88h1.922V420.7h7.156v1.714Z" transform="translate(-479.963 -407.633)"/>
    <path id="Path_195951" data-name="Path 195951" d="M597.13,422.409V407.88h10.505v1.714h-8.584v4.451h8.038v1.7h-8.038V420.7h8.92v1.714Z" transform="translate(-519.691 -407.633)"/>
    <path id="Path_195952" data-name="Path 195952" d="M658.47,422.409V407.88h6.442a8.628,8.628,0,0,1,2.954.39,3.225,3.225,0,0,1,1.615,1.383,4.132,4.132,0,0,1,.605,2.191,3.654,3.654,0,0,1-1,2.606,5.077,5.077,0,0,1-3.093,1.349,5,5,0,0,1,1.158.724,10.088,10.088,0,0,1,1.6,1.932l2.527,3.955h-2.418l-1.922-3.023q-.841-1.308-1.388-2a4.387,4.387,0,0,0-.976-.971,2.845,2.845,0,0,0-.877-.385,5.724,5.724,0,0,0-1.07-.069h-2.231v6.452H658.47Zm1.924-8.117h4.133a6.247,6.247,0,0,0,2.063-.272,2.187,2.187,0,0,0,1.129-.872,2.367,2.367,0,0,0,.385-1.3,2.164,2.164,0,0,0-.748-1.695,3.5,3.5,0,0,0-2.364-.664h-4.6v4.807Z" transform="translate(-565.879 -407.633)"/>
    <path id="Path_195953" data-name="Path 195953" d="M717.81,422.409l5.58-14.529h2.073l5.946,14.529h-2.191l-1.695-4.4h-6.077l-1.6,4.4ZM722,416.442h4.925l-1.517-4.024q-.693-1.834-1.03-3.014a18.605,18.605,0,0,1-.783,2.774Z" transform="translate(-610.561 -407.633)"/>
    <path id="Path_195954" data-name="Path 195954" d="M779.927,422.409V409.594H775.14V407.88h11.516v1.714h-4.807v12.815Z" transform="translate(-653.729 -407.633)"/>
    <path id="Path_195955" data-name="Path 195955" d="M837.65,422.409V407.88h1.922v14.529Z" transform="translate(-700.799 -407.633)"/>
    <path id="Path_195956" data-name="Path 195956" d="M865.65,422.409V407.88h1.974l7.633,11.407V407.88H877.1v14.529h-1.974l-7.633-11.417v11.417Z" transform="translate(-721.882 -407.633)"/>
    <path id="Path_195957" data-name="Path 195957" d="M936.964,415.965v-1.7l6.156-.01v5.392a10.88,10.88,0,0,1-2.924,1.7,8.67,8.67,0,0,1-3.093.571,8.263,8.263,0,0,1-3.891-.916,6.045,6.045,0,0,1-2.641-2.651,8.339,8.339,0,0,1-.892-3.876,9.007,9.007,0,0,1,.887-3.96,5.888,5.888,0,0,1,2.552-2.73,7.989,7.989,0,0,1,3.836-.892,7.6,7.6,0,0,1,2.851.511,4.719,4.719,0,0,1,2,1.423,6.289,6.289,0,0,1,1.1,2.379l-1.734.477a5.339,5.339,0,0,0-.813-1.744,3.332,3.332,0,0,0-1.388-1.015,5.09,5.09,0,0,0-2-.38,5.916,5.916,0,0,0-2.28.4,4.265,4.265,0,0,0-1.551,1.055,5.024,5.024,0,0,0-.917,1.438,7.6,7.6,0,0,0-.556,2.925,7.08,7.08,0,0,0,.669,3.251,4.281,4.281,0,0,0,1.946,1.941,6.03,6.03,0,0,0,2.715.635,6.44,6.44,0,0,0,2.438-.482,6.313,6.313,0,0,0,1.8-1.025v-2.7h-4.266Z" transform="translate(-770.096 -406.888)"/>
    <path id="Path_195958" data-name="Path 195958" d="M1030.427,422.409V409.594h-4.787V407.88h11.516v1.714h-4.807v12.815Z" transform="translate(-842.352 -407.633)"/>
    <path id="Path_195959" data-name="Path 195959" d="M1087.07,422.409V407.88h1.922v5.965h7.551V407.88h1.922v14.529h-1.922v-6.85h-7.551v6.85Z" transform="translate(-888.608 -407.633)"/>
    <path id="Path_195960" data-name="Path 195960" d="M1152.9,422.409V407.88h10.505v1.714h-8.584v4.451h8.038v1.7h-8.038V420.7h8.92v1.714Z" transform="translate(-938.177 -407.633)"/>
    <path id="Path_195961" data-name="Path 195961" d="M1252.2,416.561l1.922.487a6.464,6.464,0,0,1-2.176,3.611,5.989,5.989,0,0,1-3.841,1.245,6.9,6.9,0,0,1-3.821-.956,5.973,5.973,0,0,1-2.24-2.769,9.89,9.89,0,0,1-.768-3.9,8.572,8.572,0,0,1,.867-3.96,5.944,5.944,0,0,1,2.468-2.567,7.2,7.2,0,0,1,3.522-.877,5.974,5.974,0,0,1,3.668,1.109,5.777,5.777,0,0,1,2.073,3.122l-1.892.445a4.475,4.475,0,0,0-1.467-2.31,3.913,3.913,0,0,0-2.418-.724,4.685,4.685,0,0,0-2.8.8,4.239,4.239,0,0,0-1.581,2.156,8.68,8.68,0,0,0-.457,2.789,8.85,8.85,0,0,0,.541,3.236,4.04,4.04,0,0,0,1.68,2.068,4.706,4.706,0,0,0,2.468.684,4.136,4.136,0,0,0,2.734-.931A4.77,4.77,0,0,0,1252.2,416.561Z" transform="translate(-1004.718 -406.88)"/>
    <path id="Path_195962" data-name="Path 195962" d="M1309.69,422.409V407.88h1.922v5.965h7.551V407.88h1.922v14.529h-1.922v-6.85h-7.551v6.85Z" transform="translate(-1056.237 -407.633)"/>
    <path id="Path_195963" data-name="Path 195963" d="M1368.91,422.409l5.58-14.529h2.073l5.946,14.529h-2.191l-1.695-4.4h-6.077l-1.6,4.4Zm4.192-5.968h4.926l-1.517-4.024q-.693-1.834-1.03-3.014a18.561,18.561,0,0,1-.783,2.774Z" transform="translate(-1100.829 -407.633)"/>
    <path id="Path_195964" data-name="Path 195964" d="M1436.67,422.409V407.88h1.971l7.633,11.407V407.88h1.843v14.529h-1.971l-7.633-11.417v11.417Z" transform="translate(-1151.851 -407.633)"/>
    <path id="Path_195965" data-name="Path 195965" d="M1507.985,415.965v-1.7l6.156-.01v5.392a10.885,10.885,0,0,1-2.925,1.7,8.668,8.668,0,0,1-3.093.571,8.261,8.261,0,0,1-3.89-.916,6.045,6.045,0,0,1-2.641-2.651,8.337,8.337,0,0,1-.892-3.876,9.009,9.009,0,0,1,.887-3.96,5.89,5.89,0,0,1,2.552-2.73,7.992,7.992,0,0,1,3.836-.892,7.6,7.6,0,0,1,2.851.511,4.722,4.722,0,0,1,2,1.423,6.291,6.291,0,0,1,1.1,2.379l-1.734.477a5.346,5.346,0,0,0-.813-1.744,3.329,3.329,0,0,0-1.388-1.015,5.09,5.09,0,0,0-2-.38,5.916,5.916,0,0,0-2.28.4,4.265,4.265,0,0,0-1.551,1.055,5.013,5.013,0,0,0-.917,1.438,7.594,7.594,0,0,0-.556,2.925,7.079,7.079,0,0,0,.67,3.251,4.281,4.281,0,0,0,1.947,1.941,6.039,6.039,0,0,0,2.715.635,6.441,6.441,0,0,0,2.438-.482,6.32,6.32,0,0,0,1.8-1.025v-2.7h-4.266Z" transform="translate(-1200.065 -406.888)"/>
    <path id="Path_195966" data-name="Path 195966" d="M1573.32,422.409V407.88h10.505v1.714h-8.584v4.451h8.038v1.7h-8.038V420.7h8.92v1.714Z" transform="translate(-1254.747 -407.633)"/>
  </g>
  <g id="Group_75090" data-name="Group 75090" transform="translate(0 0)">
    <g id="Group_75083" data-name="Group 75083" transform="translate(0 41.518)">
      <path id="Path_195967" data-name="Path 195967" d="M18.42,283.367l10.636.4,6-27.535L24.274,255.18Z" transform="translate(-18.42 -239.781)" fill="#1c1c1f"/>
      <path id="Path_195968" data-name="Path 195968" d="M137.844,276.444h-3.169l-10.422-13.5-11.343-1.1,18.2,26.954,14.658-.464,4.861-22.824-10.333-1Z" transform="translate(-89.57 -244.796)" fill="#1c1c1f"/>
      <path id="Path_195969" data-name="Path 195969" d="M57.2,193.235l-11.886-.4-3.2,15.4L52.9,209.286l.734-3.367H56.8l2.8,4.019,11.343,1.1Z" transform="translate(-36.266 -192.84)" fill="#58595a"/>
      <path id="Path_195970" data-name="Path 195970" d="M227.661,196.06l-3.891,18.963,10.333,1.005,4.251-19.969Z" transform="translate(-173.045 -195.265)" fill="#58595a"/>
    </g>
    <g id="Group_75084" data-name="Group 75084" transform="translate(202.985 41.832)">
      <path id="Path_195971" data-name="Path 195971" d="M1043.952,321.6H1057.1l11.822-16.192-27.678,2.715Z" transform="translate(-991.573 -277.917)" fill="#e05426"/>
      <path id="Path_195972" data-name="Path 195972" d="M871.691,335.464h13.576L893.4,323.82l-23.686,2.322Z" transform="translate(-862.413 -291.78)" fill="#e05426"/>
      <path id="Path_195973" data-name="Path 195973" d="M924.3,194.11l-20.426,28.718h-2.023l-7.079-28.518H881.226l-19.821,27.708h-2.831L852.3,194.11H840.17l7.3,34.362,23.686-2.322,12.292-17.607,3.241.128,3.152,15.646,27.678-2.715L937.45,194.31Z" transform="translate(-840.17 -194.11)" fill="#e37526"/>
    </g>
    <g id="Group_75085" data-name="Group 75085" transform="translate(276.297 42.232)">
      <path id="Path_195974" data-name="Path 195974" d="M1178.162,291.129c.012.129,0,.252-.229.334l-12.479-.193c-.091,0-.111,0-.155-.086a.28.28,0,0,1-.017-.247h0l1.786-2.811-16.268,1.6-13.84,17.321h13.551l3.844-6.067,24.872-.405.188,6.472h12.351l-3.723-20.972-10.572,1.037Q1177.815,289.116,1178.162,291.129Z" transform="translate(-1136.96 -263.755)" fill="#e05426"/>
      <path id="Path_195975" data-name="Path 195975" d="M1213.724,195.732l-20.744,25.961,16.269-1.6,6.1-9.6h2.831l1.475,8.581,10.572-1.037-3.962-22.31h-12.536Z" transform="translate(-1179.142 -195.73)" fill="#e37526"/>
    </g>
    <g id="Group_75086" data-name="Group 75086" transform="translate(401.81 42.354)">
      <path id="Path_195976" data-name="Path 195976" d="M1657.654,261.667h37.667c.706-2.512,1.413-5.879,2.119-8.389l-36.961.235c.185-1.541.37-2.559.556-3.873l-10.824,1.062c-1.168,5.558-2.3,11.118-3.609,16.676-.544,2.319-3.211,11.316.123,12.23h53.116c.143-3.273.089-7,.3-9.315H1661.5C1654.448,270.293,1657.654,261.667,1657.654,261.667Z" transform="translate(-1645.078 -236.446)" fill="#e05426"/>
      <path id="Path_195977" data-name="Path 195977" d="M1676.825,208.263a4.862,4.862,0,0,1,4.708-4.239l41.679.235c.363-3.006.857-5.886,1.074-8H1675.5c-3.767-.274-6.748,1.215-8,6.593-.568,2.544-1.106,5.089-1.643,7.633l10.824-1.062C1676.724,209.061,1676.775,208.683,1676.825,208.263Z" transform="translate(-1660.719 -196.224)" fill="#e37526"/>
    </g>
    <g id="Group_75087" data-name="Group 75087" transform="translate(64.085 42.354)">
      <path id="Path_195978" data-name="Path 195978" d="M279.383,290.465c-.543,2.319-3.211,11.316.124,12.23h53.116c.143-3.273.089-7,.3-9.315H294.283c-7.052,0-3.846-8.623-3.846-8.623H327.45L281.618,280.3C280.9,283.689,280.178,287.076,279.383,290.465Z" transform="translate(-277.858 -259.532)" fill="#1c1c1f"/>
      <path id="Path_195979" data-name="Path 195979" d="M341.69,213.057l-36.961.235c.235-1.961.472-3.068.706-5.029a4.862,4.862,0,0,1,4.708-4.239l41.679.235c.363-3.006.857-5.886,1.075-8H304.107c-3.767-.274-6.748,1.215-8,6.593-1.052,4.716-2.018,9.431-3.013,14.147l45.829,4.454h.652C340.277,218.936,340.984,215.57,341.69,213.057Z" transform="translate(-289.328 -196.224)" fill="#58595a"/>
    </g>
    <g id="Group_75088" data-name="Group 75088" transform="translate(338.246 41.755)">
      <path id="Path_195980" data-name="Path 195980" d="M1436.513,260.487a3.651,3.651,0,0,1-3.335,3.174h-26.833a2.557,2.557,0,0,1-2.159-1.351l-11.9,1.166q-2.268,11.086-4.538,22.17h11.479c.274-2.268.805-4.533,1.21-6.8.516-2.878.543-6.9,4.377-6.8,8.482.069,18.452-.235,27.214-.237,5.17,0,2.668,4.523,1.83,8.631-.351,1.722-1.225,3.574-1.63,5.432h11.242c.971-3.853,1.495-8.159,2.465-12.012.225-3.522-1.462-4.636-3.6-6.346,3.53-.973,4.945-5.056,6.064-9.065l.141-.489-11.827,1.158Z" transform="translate(-1387.75 -242.111)" fill="#e05426"/>
      <path id="Path_195981" data-name="Path 195981" d="M1458.408,193.819h-38.863c-6.269-.106-9.226,1.722-10.782,8.386q-1.326,6.48-2.653,12.958l11.9-1.166a2.531,2.531,0,0,1-.314-1.3,2.585,2.585,0,0,1,.072-.516l.968-6.573a3.654,3.654,0,0,1,3.335-3.174H1448.9a2.566,2.566,0,0,1,2.4,3.172l-.766,5.2,11.827-1.159,2.329-8.124C1466.053,196.262,1466.592,193.535,1458.408,193.819Z" transform="translate(-1401.575 -193.798)" fill="#e37526"/>
    </g>
    <g id="Group_75089" data-name="Group 75089" transform="translate(126.383)">
      <path id="Path_195982" data-name="Path 195982" d="M530.06,324.494h0l17.19.2,15.384-13.655-15.648-1.522C539.469,316.3,530.06,324.736,530.06,324.494Z" transform="translate(-530.06 -239.18)" fill="#1c1c1f"/>
      <path id="Path_195983" data-name="Path 195983" d="M735.351,333.695l17.19-.2c0,.188-5.563-4.757-11.551-10.135l-19.41-1.887Z" transform="translate(-674.272 -248.178)" fill="#1c1c1f"/>
      <path id="Path_195984" data-name="Path 195984" d="M607.752,275.98s-4.165,3.777-9.162,8.285l15.648,1.522,2.616-2.322Z" transform="translate(-581.662 -213.925)" fill="#58595a"/>
      <path id="Path_195985" data-name="Path 195985" d="M704.46,283.455l4.229,3.752,19.41,1.887c-6.981-6.269-14.539-13.124-14.539-13.124Z" transform="translate(-661.381 -213.917)" fill="#58595a"/>
      <path id="Path_195986" data-name="Path 195986" d="M613.667,175.176h-3.453l-11.195-10.068-1.6-1.393L583.83,165.73l1.934,1.69h0l23.7,21.49L645.4,156.6l-12.867,1.909Z" transform="translate(-570.548 -124.033)" fill="#e05426"/>
      <path id="Path_195987" data-name="Path 195987" d="M557.037,155.97l-15.807.084,10.523,9.2,13.593-2.016Z" transform="translate(-538.471 -123.559)" fill="#e37526"/>
      <path id="Path_195988" data-name="Path 195988" d="M813.211,52.972,823.7,24.76l-30.388,9.169,10.353,5.256L780.98,59.236l12.867-1.909L808.423,44.22Z" transform="translate(-718.999 -24.76)" fill="#e37526"/>
    </g>
  </g>
</svg>
